<svg width="247" height="247" viewBox="0 0 247 247" fill="none" xmlns="http://www.w3.org/2000/svg">
<mask id="mask0_14_9304" style="mask-type:luminance" maskUnits="userSpaceOnUse" x="14" y="29" width="220" height="188">
<path d="M14 29H233.841V217H14V29Z" fill="white"/>
</mask>
<g mask="url(#mask0_14_9304)">
<mask id="mask1_14_9304" style="mask-type:luminance" maskUnits="userSpaceOnUse" x="14" y="29" width="220" height="188">
<path d="M37.8689 29H209.805C222.988 29 233.674 39.6859 233.674 52.8689V193.131C233.674 206.314 222.988 217 209.805 217H37.8689C24.6859 217 14 206.314 14 193.131V52.8689C14 39.6859 24.6859 29 37.8689 29Z" fill="white"/>
</mask>
<g mask="url(#mask1_14_9304)">
<path d="M14 29H233.577V217H14V29Z" fill="black"/>
</g>
</g>
<mask id="mask2_14_9304" style="mask-type:luminance" maskUnits="userSpaceOnUse" x="61" y="40" width="165" height="166">
<path d="M61.1 40.1561H225.55V205.893H61.1V40.1561Z" fill="white"/>
</mask>
<g mask="url(#mask2_14_9304)">
<mask id="mask3_14_9304" style="mask-type:luminance" maskUnits="userSpaceOnUse" x="61" y="40" width="165" height="166">
<path d="M84.9689 40.1561H201.681C214.864 40.1561 225.55 50.842 225.55 64.025V181.975C225.55 195.158 214.864 205.844 201.681 205.844H84.9689C71.7859 205.844 61.1 195.158 61.1 181.975V64.025C61.1 50.842 71.7859 40.1561 84.9689 40.1561Z" fill="white"/>
</mask>
<g mask="url(#mask3_14_9304)">
<path d="M61.1 40.1561H225.55V205.893H61.1V40.1561Z" fill="white"/>
</g>
</g>
<mask id="mask4_14_9304" style="mask-type:luminance" maskUnits="userSpaceOnUse" x="94" y="92" width="102" height="74">
<path d="M94.2765 92.6396H195.184V165.203H94.2765V92.6396Z" fill="white"/>
</mask>
<g mask="url(#mask4_14_9304)">
<path d="M184.363 165.192H105.097C104.389 165.192 103.687 165.122 102.989 164.987C102.292 164.846 101.617 164.641 100.962 164.365C100.308 164.09 99.6869 163.754 99.0923 163.36C98.5032 162.96 97.9573 162.511 97.4546 162.003C96.9519 161.5 96.5087 160.949 96.1141 160.355C95.7195 159.76 95.3844 159.133 95.1142 158.474C94.8439 157.814 94.6385 157.133 94.498 156.436C94.3575 155.733 94.2926 155.025 94.2926 154.312V103.52C94.2926 102.807 94.3575 102.099 94.498 101.396C94.6385 100.699 94.8439 100.018 95.1142 99.3581C95.3844 98.6933 95.7195 98.0663 96.1141 97.4771C96.5087 96.8826 96.9519 96.3313 97.4546 95.8232C97.9573 95.3205 98.5032 94.8665 99.0923 94.4719C99.6869 94.0773 100.308 93.7422 100.962 93.4666C101.617 93.1909 102.292 92.9855 102.989 92.845C103.687 92.7099 104.389 92.6396 105.097 92.6396H184.363C185.071 92.6396 185.774 92.7099 186.471 92.845C187.168 92.9855 187.844 93.1909 188.498 93.4666C189.152 93.7422 189.774 94.0773 190.368 94.4719C190.957 94.8665 191.503 95.3205 192.006 95.8232C192.509 96.3313 192.952 96.8826 193.346 97.4771C193.741 98.0663 194.076 98.6933 194.346 99.3581C194.617 100.018 194.822 100.699 194.962 101.396C195.103 102.099 195.168 102.807 195.168 103.52V154.312C195.168 155.025 195.103 155.733 194.962 156.436C194.822 157.133 194.617 157.814 194.346 158.474C194.076 159.133 193.741 159.76 193.346 160.355C192.952 160.949 192.509 161.5 192.006 162.003C191.503 162.511 190.957 162.96 190.368 163.36C189.774 163.754 189.152 164.09 188.498 164.365C187.844 164.641 187.168 164.846 186.471 164.987C185.774 165.122 185.071 165.192 184.363 165.192ZM105.097 99.8932C104.622 99.8932 104.162 99.9851 103.719 100.169C103.281 100.353 102.887 100.618 102.552 100.958C102.211 101.299 101.952 101.688 101.768 102.131C101.589 102.58 101.498 103.039 101.498 103.52V154.312C101.498 154.793 101.589 155.252 101.768 155.701C101.952 156.144 102.211 156.533 102.552 156.874C102.887 157.214 103.281 157.479 103.719 157.663C104.162 157.847 104.622 157.939 105.097 157.939H184.363C184.839 157.939 185.298 157.847 185.741 157.663C186.179 157.479 186.574 157.214 186.909 156.874C187.249 156.533 187.509 156.144 187.693 155.701C187.871 155.252 187.963 154.793 187.963 154.312V103.52C187.963 103.039 187.871 102.58 187.693 102.131C187.509 101.688 187.249 101.299 186.909 100.958C186.574 100.618 186.179 100.353 185.741 100.169C185.298 99.9851 184.839 99.8932 184.363 99.8932H105.097Z" fill="black"/>
</g>
<mask id="mask5_14_9304" style="mask-type:luminance" maskUnits="userSpaceOnUse" x="121" y="167" width="47" height="10">
<path d="M121.761 167.97H167.424V176.078H121.761V167.97Z" fill="white"/>
</mask>
<g mask="url(#mask5_14_9304)">
<path d="M162.743 176.078H126.718C126.237 176.078 125.777 175.986 125.34 175.802C124.896 175.619 124.507 175.354 124.167 175.013C123.832 174.673 123.572 174.284 123.388 173.835C123.205 173.392 123.113 172.932 123.113 172.451C123.113 171.97 123.205 171.505 123.388 171.062C123.572 170.614 123.832 170.224 124.167 169.884C124.507 169.543 124.896 169.284 125.34 169.095C125.777 168.911 126.237 168.819 126.718 168.819H162.743C163.224 168.819 163.683 168.911 164.121 169.095C164.564 169.284 164.954 169.543 165.294 169.884C165.629 170.224 165.889 170.614 166.072 171.062C166.256 171.505 166.348 171.97 166.348 172.451C166.348 172.932 166.256 173.392 166.072 173.835C165.889 174.284 165.629 174.673 165.294 175.013C164.954 175.354 164.564 175.619 164.121 175.802C163.683 175.986 163.224 176.078 162.743 176.078Z" fill="black"/>
</g>
<mask id="mask6_14_9304" style="mask-type:luminance" maskUnits="userSpaceOnUse" x="111" y="119" width="67" height="30">
<path d="M111.67 119.541H177.645V148.599H111.67V119.541Z" fill="white"/>
</mask>
<g mask="url(#mask6_14_9304)">
<path d="M139.436 134.156C139.436 141.831 133.226 148.036 125.55 148.036C117.875 148.036 111.67 141.831 111.67 134.156C111.67 126.481 117.875 120.276 125.55 120.276C133.226 120.276 139.436 126.481 139.436 134.156ZM164.094 120.276C156.419 120.276 150.214 126.481 150.214 134.156C150.214 141.831 156.419 148.036 164.094 148.036C171.769 148.036 177.98 141.831 177.98 134.156C177.98 126.481 171.769 120.276 164.094 120.276Z" fill="#D9D9D9"/>
</g>
<mask id="mask7_14_9304" style="mask-type:luminance" maskUnits="userSpaceOnUse" x="116" y="104" width="62" height="48">
<path d="M116.227 104.985H177.645V151.366H116.227V104.985Z" fill="white"/>
</mask>
<g mask="url(#mask7_14_9304)">
<path d="M151.03 150.08C146.701 151.388 141.966 151.307 137.717 149.836C136.901 149.588 136.328 148.69 136.577 147.793C136.82 146.977 137.717 146.404 138.615 146.647C142.371 147.955 146.376 148.036 150.214 146.896C152.257 146.323 153.073 149.426 151.03 150.08ZM138.863 131.951C138.863 126.805 134.777 122.724 129.637 122.724C124.572 122.724 120.405 126.886 120.405 131.951C120.405 137.015 124.572 141.177 129.637 141.177C134.777 141.177 138.863 137.015 138.863 131.951ZM168.343 122.724C163.278 122.724 159.116 126.886 159.116 131.951C159.116 137.015 163.278 141.177 168.343 141.177C173.407 141.177 177.569 137.015 177.569 131.951C177.569 126.886 173.407 122.724 168.343 122.724ZM131.188 108.925C132.085 109.006 132.82 108.104 132.82 107.287C132.82 106.39 132.085 105.736 131.188 105.655C126.448 105.25 121.713 106.309 117.464 108.514C115.589 109.493 117.221 112.352 119.102 111.374C122.859 109.412 127.021 108.595 131.188 108.925ZM171.034 111.374C172.915 112.352 174.548 109.574 172.672 108.514C168.505 106.309 163.689 105.25 159.03 105.655C158.132 105.736 157.397 106.39 157.397 107.287C157.397 108.104 158.132 109.006 159.03 108.925C163.197 108.595 167.364 109.412 171.034 111.374Z" fill="black"/>
</g>
<mask id="mask8_14_9304" style="mask-type:luminance" maskUnits="userSpaceOnUse" x="104" y="158" width="7" height="45">
<path d="M104.146 158.722H110.416V202.698H104.146V158.722Z" fill="white"/>
</mask>
<g mask="url(#mask8_14_9304)">
<path d="M104.146 158.722H110.416V202.687H104.146V158.722Z" fill="black"/>
</g>
<mask id="mask9_14_9304" style="mask-type:luminance" maskUnits="userSpaceOnUse" x="178" y="54" width="7" height="45">
<path d="M178.001 54.7012H184.266V98.6771H178.001V54.7012Z" fill="white"/>
</mask>
<g mask="url(#mask9_14_9304)">
<path d="M178.001 54.7012H184.266V98.6663H178.001V54.7012Z" fill="black"/>
</g>
<mask id="mask10_14_9304" style="mask-type:luminance" maskUnits="userSpaceOnUse" x="165" y="63" width="8" height="32">
<path d="M165.997 63.2251H172.267V94.8287H165.997V63.2251Z" fill="white"/>
</mask>
<g mask="url(#mask10_14_9304)">
<path d="M165.997 63.2251H172.267V94.8287H165.997V63.2251Z" fill="black"/>
</g>
<mask id="mask11_14_9304" style="mask-type:luminance" maskUnits="userSpaceOnUse" x="114" y="163" width="8" height="32">
<path d="M114.789 163.133H121.053V194.736H114.789V163.133Z" fill="white"/>
</mask>
<g mask="url(#mask11_14_9304)">
<path d="M114.789 163.133H121.053V194.736H114.789V163.133Z" fill="black"/>
</g>
<mask id="mask12_14_9304" style="mask-type:luminance" maskUnits="userSpaceOnUse" x="103" y="66" width="57" height="34">
<path d="M103.281 66.0465H159.797V99.931H103.281V66.0465Z" fill="white"/>
</mask>
<g mask="url(#mask12_14_9304)">
<mask id="mask13_14_9304" style="mask-type:luminance" maskUnits="userSpaceOnUse" x="103" y="66" width="57" height="34">
<path d="M122.107 67.6788C124.994 66.6951 128.291 66.0465 131.523 66.0465C134.75 66.0465 137.858 66.6032 140.722 67.587C140.782 67.6194 140.847 67.6194 140.906 67.6464C151.657 71.5867 159.581 81.9807 159.732 93.3368V99.931H103.281V93.3422C103.433 81.9159 111.232 71.5219 122.107 67.6788Z" fill="white"/>
</mask>
<g mask="url(#mask13_14_9304)">
<path d="M103.281 66.0465H159.797V99.931H103.281V66.0465Z" fill="black"/>
</g>
</g>
<mask id="mask14_14_9304" style="mask-type:luminance" maskUnits="userSpaceOnUse" x="112" y="71" width="39" height="22">
<path d="M112.74 71.9813H150.344V92.6396H112.74V71.9813Z" fill="white"/>
</mask>
<g mask="url(#mask14_14_9304)">
<mask id="mask15_14_9304" style="mask-type:luminance" maskUnits="userSpaceOnUse" x="112" y="71" width="39" height="22">
<path d="M125.258 72.9759C127.177 72.3759 129.372 71.9813 131.518 71.9813C133.663 71.9813 135.728 72.3164 137.636 72.9164C137.674 72.938 137.717 72.938 137.755 72.9542C144.906 75.3541 150.176 81.6943 150.273 88.6182V92.6396H112.74V88.6236C112.838 81.6564 118.026 75.3163 125.258 72.9759Z" fill="white"/>
</mask>
<g mask="url(#mask15_14_9304)">
<path d="M112.74 71.9813H150.262V92.6396H112.74V71.9813Z" fill="white"/>
</g>
</g>
<mask id="mask16_14_9304" style="mask-type:luminance" maskUnits="userSpaceOnUse" x="111" y="104" width="64" height="15">
<path d="M111.67 104.985H174.98V118.044H111.67V104.985Z" fill="white"/>
</mask>
<g mask="url(#mask16_14_9304)">
<path d="M111.67 104.985H175.007V118.044H111.67V104.985Z" fill="white"/>
</g>
<mask id="mask17_14_9304" style="mask-type:luminance" maskUnits="userSpaceOnUse" x="133" y="145" width="24" height="11">
<path d="M133.193 145.664H156.473V155.366H133.193V145.664Z" fill="white"/>
</mask>
<g mask="url(#mask17_14_9304)">
<path d="M133.193 145.664H156.462V155.366H133.193V145.664Z" fill="white"/>
</g>
</svg>
