<svg width="35" height="35" viewBox="0 0 35 35" fill="none" xmlns="http://www.w3.org/2000/svg">
<mask id="mask0_437_10424" style="mask-type:luminance" maskUnits="userSpaceOnUse" x="0" y="3" width="35" height="29">
<path d="M33.6353 3.60938V31.249H1.48389V3.60938H33.6353Z" fill="white" stroke="white"/>
</mask>
<g mask="url(#mask0_437_10424)">
<mask id="mask1_437_10424" style="mask-type:luminance" maskUnits="userSpaceOnUse" x="0" y="3" width="35" height="29">
<path d="M29.73 3.60938C31.8738 3.60962 33.6116 5.34736 33.6118 7.49121V27.3672C33.6116 29.511 31.8738 31.2488 29.73 31.249H5.36572C3.22185 31.2488 1.48409 29.5111 1.48389 27.3672V7.49121C1.4841 5.34734 3.22185 3.60959 5.36572 3.60938H29.73Z" fill="white" stroke="white"/>
</mask>
<g mask="url(#mask1_437_10424)">
<path d="M33.5981 3.60938V31.249H1.48389V3.60938H33.5981Z" fill="black" stroke="black"/>
</g>
</g>
<mask id="mask2_437_10424" style="mask-type:luminance" maskUnits="userSpaceOnUse" x="8" y="5" width="24" height="25">
<path d="M8.65796 5.69043H31.9606V29.1753H8.65796V5.69043Z" fill="white"/>
</mask>
<g mask="url(#mask2_437_10424)">
<mask id="mask3_437_10424" style="mask-type:luminance" maskUnits="userSpaceOnUse" x="8" y="5" width="24" height="25">
<path d="M12.0402 5.69043H28.5784C30.4464 5.69043 31.9606 7.20462 31.9606 9.07266V25.7862C31.9606 27.6543 30.4464 29.1685 28.5784 29.1685H12.0402C10.1722 29.1685 8.65796 27.6543 8.65796 25.7862V9.07266C8.65796 7.20462 10.1722 5.69043 12.0402 5.69043Z" fill="white"/>
</mask>
<g mask="url(#mask3_437_10424)">
<path d="M8.65796 5.69043H31.9606V29.1753H8.65796V5.69043Z" fill="white"/>
</g>
</g>
<mask id="mask4_437_10424" style="mask-type:luminance" maskUnits="userSpaceOnUse" x="13" y="13" width="15" height="11">
<path d="M13.3591 13.127H27.6578V23.4092H13.3591V13.127Z" fill="white"/>
</mask>
<g mask="url(#mask4_437_10424)">
<path d="M26.1244 23.4077H14.8924C14.792 23.4077 14.6925 23.3977 14.5937 23.3786C14.4949 23.3587 14.3991 23.3296 14.3065 23.2905C14.2138 23.2514 14.1257 23.204 14.0415 23.148C13.958 23.0914 13.8806 23.0278 13.8094 22.9558C13.7382 22.8846 13.6753 22.8064 13.6194 22.7222C13.5635 22.638 13.516 22.5491 13.4777 22.4557C13.4395 22.3622 13.4103 22.2657 13.3904 22.1669C13.3705 22.0674 13.3613 21.967 13.3613 21.8659V14.6687C13.3613 14.5676 13.3705 14.4673 13.3904 14.3677C13.4103 14.2689 13.4395 14.1724 13.4777 14.079C13.516 13.9848 13.5635 13.8959 13.6194 13.8124C13.6753 13.7282 13.7382 13.6501 13.8094 13.5781C13.8806 13.5068 13.958 13.4425 14.0415 13.3866C14.1257 13.3307 14.2138 13.2832 14.3065 13.2441C14.3991 13.2051 14.4949 13.176 14.5937 13.1561C14.6925 13.1369 14.792 13.127 14.8924 13.127H26.1244C26.2247 13.127 26.3243 13.1369 26.4231 13.1561C26.5219 13.176 26.6176 13.2051 26.7103 13.2441C26.8029 13.2832 26.891 13.3307 26.9753 13.3866C27.0588 13.4425 27.1361 13.5068 27.2073 13.5781C27.2786 13.6501 27.3414 13.7282 27.3973 13.8124C27.4532 13.8959 27.5007 13.9848 27.539 14.079C27.5773 14.1724 27.6064 14.2689 27.6263 14.3677C27.6462 14.4673 27.6554 14.5676 27.6554 14.6687V21.8659C27.6554 21.967 27.6462 22.0674 27.6263 22.1669C27.6064 22.2657 27.5773 22.3622 27.539 22.4557C27.5007 22.5491 27.4532 22.638 27.3973 22.7222C27.3414 22.8064 27.2786 22.8846 27.2073 22.9558C27.1361 23.0278 27.0588 23.0914 26.9753 23.148C26.891 23.204 26.8029 23.2514 26.7103 23.2905C26.6176 23.3296 26.5219 23.3587 26.4231 23.3786C26.3243 23.3977 26.2247 23.4077 26.1244 23.4077ZM14.8924 14.1548C14.825 14.1548 14.7599 14.1678 14.6971 14.1939C14.635 14.2199 14.5791 14.2574 14.5316 14.3057C14.4834 14.3539 14.4466 14.4091 14.4206 14.4719C14.3953 14.5355 14.3823 14.6006 14.3823 14.6687V21.8659C14.3823 21.9341 14.3953 21.9992 14.4206 22.0628C14.4466 22.1256 14.4834 22.1807 14.5316 22.229C14.5791 22.2772 14.635 22.3147 14.6971 22.3408C14.7599 22.3668 14.825 22.3798 14.8924 22.3798H26.1244C26.1918 22.3798 26.2569 22.3668 26.3197 22.3408C26.3817 22.3147 26.4376 22.2772 26.4851 22.229C26.5333 22.1807 26.5701 22.1256 26.5962 22.0628C26.6214 21.9992 26.6344 21.9341 26.6344 21.8659V14.6687C26.6344 14.6006 26.6214 14.5355 26.5962 14.4719C26.5701 14.4091 26.5333 14.3539 26.4851 14.3057C26.4376 14.2574 26.3817 14.2199 26.3197 14.1939C26.2569 14.1678 26.1918 14.1548 26.1244 14.1548H14.8924Z" fill="black"/>
</g>
<mask id="mask5_437_10424" style="mask-type:luminance" maskUnits="userSpaceOnUse" x="17" y="23" width="7" height="2">
<path d="M17.2537 23.8018H23.724V24.9506H17.2537V23.8018Z" fill="white"/>
</mask>
<g mask="url(#mask5_437_10424)">
<path d="M23.0607 24.9505H17.9559C17.8878 24.9505 17.8227 24.9375 17.7606 24.9114C17.6978 24.8854 17.6427 24.8479 17.5944 24.7996C17.5469 24.7513 17.5102 24.6962 17.4841 24.6326C17.4581 24.5698 17.4451 24.5047 17.4451 24.4366C17.4451 24.3684 17.4581 24.3025 17.4841 24.2397C17.5102 24.1762 17.5469 24.121 17.5944 24.0728C17.6427 24.0245 17.6978 23.9877 17.7606 23.9609C17.8227 23.9349 17.8878 23.9219 17.9559 23.9219H23.0607C23.1288 23.9219 23.1939 23.9349 23.256 23.9609C23.3188 23.9877 23.3739 24.0245 23.4222 24.0728C23.4697 24.121 23.5064 24.1762 23.5325 24.2397C23.5585 24.3025 23.5715 24.3684 23.5715 24.4366C23.5715 24.5047 23.5585 24.5698 23.5325 24.6326C23.5064 24.6962 23.4697 24.7513 23.4222 24.7996C23.3739 24.8479 23.3188 24.8854 23.256 24.9114C23.1939 24.9375 23.1288 24.9505 23.0607 24.9505Z" fill="black"/>
</g>
<mask id="mask6_437_10424" style="mask-type:luminance" maskUnits="userSpaceOnUse" x="15" y="16" width="11" height="6">
<path d="M15.8237 16.9395H25.1724V21.057H15.8237V16.9395Z" fill="white"/>
</mask>
<g mask="url(#mask6_437_10424)">
<path d="M19.7582 19.0108C19.7582 20.0984 18.8782 20.9776 17.7906 20.9776C16.703 20.9776 15.8237 20.0984 15.8237 19.0108C15.8237 17.9232 16.703 17.0439 17.7906 17.0439C18.8782 17.0439 19.7582 17.9232 19.7582 19.0108ZM23.2522 17.0439C22.1647 17.0439 21.2854 17.9232 21.2854 19.0108C21.2854 20.0984 22.1647 20.9776 23.2522 20.9776C24.3398 20.9776 25.2198 20.0984 25.2198 19.0108C25.2198 17.9232 24.3398 17.0439 23.2522 17.0439Z" fill="#D9D9D9"/>
</g>
<mask id="mask7_437_10424" style="mask-type:luminance" maskUnits="userSpaceOnUse" x="16" y="14" width="10" height="8">
<path d="M16.4695 14.876H25.1725V21.4482H16.4695V14.876Z" fill="white"/>
</mask>
<g mask="url(#mask7_437_10424)">
<path d="M21.4012 21.266C20.7877 21.4513 20.1168 21.4399 19.5148 21.2315C19.3992 21.1963 19.318 21.0692 19.3532 20.942C19.3877 20.8264 19.5148 20.7452 19.642 20.7796C20.1743 20.965 20.7418 20.9765 21.2856 20.8149C21.5751 20.7337 21.6907 21.1733 21.4012 21.266ZM19.6772 18.6972C19.6772 17.968 19.0982 17.3898 18.3698 17.3898C17.6521 17.3898 17.0616 17.9795 17.0616 18.6972C17.0616 19.4148 17.6521 20.0046 18.3698 20.0046C19.0982 20.0046 19.6772 19.4148 19.6772 18.6972ZM23.8544 17.3898C23.1368 17.3898 22.547 17.9795 22.547 18.6972C22.547 19.4148 23.1368 20.0046 23.8544 20.0046C24.5721 20.0046 25.1618 19.4148 25.1618 18.6972C25.1618 17.9795 24.5721 17.3898 23.8544 17.3898ZM18.5896 15.4344C18.7167 15.4459 18.8209 15.318 18.8209 15.2023C18.8209 15.0752 18.7167 14.9825 18.5896 14.971C17.9179 14.9136 17.247 15.0637 16.645 15.3762C16.3792 15.5148 16.6105 15.92 16.877 15.7814C17.4093 15.5033 17.9991 15.3877 18.5896 15.4344ZM24.2358 15.7814C24.5024 15.92 24.7337 15.5263 24.4679 15.3762C23.8774 15.0637 23.195 14.9136 22.5348 14.971C22.4076 14.9825 22.3035 15.0752 22.3035 15.2023C22.3035 15.318 22.4076 15.4459 22.5348 15.4344C23.1253 15.3877 23.7158 15.5033 24.2358 15.7814Z" fill="black"/>
</g>
<mask id="mask8_437_10424" style="mask-type:luminance" maskUnits="userSpaceOnUse" x="14" y="22" width="2" height="7">
<path d="M14.7576 22.4912H15.646V28.7226H14.7576V22.4912Z" fill="white"/>
</mask>
<g mask="url(#mask8_437_10424)">
<path d="M14.7576 22.4912H15.646V28.7211H14.7576V22.4912Z" fill="black"/>
</g>
<mask id="mask9_437_10424" style="mask-type:luminance" maskUnits="userSpaceOnUse" x="25" y="7" width="2" height="7">
<path d="M25.2229 7.75098H26.1106V13.9824H25.2229V7.75098Z" fill="white"/>
</mask>
<g mask="url(#mask9_437_10424)">
<path d="M25.2229 7.75098H26.1106V13.9808H25.2229V7.75098Z" fill="black"/>
</g>
<mask id="mask10_437_10424" style="mask-type:luminance" maskUnits="userSpaceOnUse" x="23" y="8" width="2" height="6">
<path d="M23.522 8.95898H24.4104V13.4372H23.522V8.95898Z" fill="white"/>
</mask>
<g mask="url(#mask10_437_10424)">
<path d="M23.522 8.95898H24.4104V13.4372H23.522V8.95898Z" fill="black"/>
</g>
<mask id="mask11_437_10424" style="mask-type:luminance" maskUnits="userSpaceOnUse" x="16" y="23" width="2" height="5">
<path d="M16.2656 23.1162H17.1533V27.5945H16.2656V23.1162Z" fill="white"/>
</mask>
<g mask="url(#mask11_437_10424)">
<path d="M16.2656 23.1162H17.1533V27.5945H16.2656V23.1162Z" fill="black"/>
</g>
<mask id="mask12_437_10424" style="mask-type:luminance" maskUnits="userSpaceOnUse" x="14" y="9" width="9" height="6">
<path d="M14.635 9.3584H22.6433V14.1599H14.635V9.3584Z" fill="white"/>
</mask>
<g mask="url(#mask12_437_10424)">
<mask id="mask13_437_10424" style="mask-type:luminance" maskUnits="userSpaceOnUse" x="14" y="9" width="9" height="6">
<path d="M17.3027 9.5897C17.7116 9.45031 18.1788 9.3584 18.6369 9.3584C19.0941 9.3584 19.5345 9.43729 19.9404 9.57668C19.9489 9.58128 19.958 9.58128 19.9665 9.58511C21.4899 10.1435 22.6127 11.6163 22.6341 13.2254V14.1599H14.635V13.2262C14.6565 11.6071 15.7617 10.1343 17.3027 9.5897Z" fill="white"/>
</mask>
<g mask="url(#mask13_437_10424)">
<path d="M14.635 9.3584H22.6433V14.1599H14.635V9.3584Z" fill="black"/>
</g>
</g>
<mask id="mask14_437_10424" style="mask-type:luminance" maskUnits="userSpaceOnUse" x="15" y="10" width="7" height="4">
<path d="M15.9753 10.2002H21.3037V13.1275H15.9753V10.2002Z" fill="white"/>
</mask>
<g mask="url(#mask14_437_10424)">
<mask id="mask15_437_10424" style="mask-type:luminance" maskUnits="userSpaceOnUse" x="15" y="10" width="7" height="4">
<path d="M17.7492 10.3411C18.0211 10.2561 18.332 10.2002 18.6361 10.2002C18.9402 10.2002 19.2327 10.2477 19.5031 10.3327C19.5085 10.3358 19.5146 10.3358 19.5199 10.3381C20.5332 10.6781 21.28 11.5765 21.2938 12.5576V13.1275H15.9753V12.5584C15.9891 11.5712 16.7244 10.6728 17.7492 10.3411Z" fill="white"/>
</mask>
<g mask="url(#mask15_437_10424)">
<path d="M15.9753 10.2002H21.2922V13.1275H15.9753V10.2002Z" fill="white"/>
</g>
</g>
<mask id="mask16_437_10424" style="mask-type:luminance" maskUnits="userSpaceOnUse" x="15" y="14" width="10" height="3">
<path d="M15.8237 14.876H24.7948V16.7264H15.8237V14.876Z" fill="white"/>
</mask>
<g mask="url(#mask16_437_10424)">
<path d="M15.8237 14.876H24.7986V16.7264H15.8237V14.876Z" fill="white"/>
</g>
<mask id="mask17_437_10424" style="mask-type:luminance" maskUnits="userSpaceOnUse" x="18" y="20" width="5" height="3">
<path d="M18.8735 20.6406H22.1723V22.0154H18.8735V20.6406Z" fill="white"/>
</mask>
<g mask="url(#mask17_437_10424)">
<path d="M18.8735 20.6406H22.1708V22.0154H18.8735V20.6406Z" fill="white"/>
</g>
</svg>
