<svg width="35" height="35" viewBox="0 0 35 35" fill="none" xmlns="http://www.w3.org/2000/svg">
<rect width="35" height="35" fill="#5D4E60"/>
<mask id="mask0_437_1935" style="mask-type:luminance" maskUnits="userSpaceOnUse" x="0" y="3" width="35" height="29">
<path d="M33.6353 3.60938V31.249H1.48389V3.60938H33.6353Z" fill="white" stroke="white"/>
</mask>
<g mask="url(#mask0_437_1935)">
<mask id="mask1_437_1935" style="mask-type:luminance" maskUnits="userSpaceOnUse" x="0" y="3" width="35" height="29">
<path d="M29.73 3.60938C31.8738 3.60962 33.6116 5.34736 33.6118 7.49121V27.3672C33.6116 29.511 31.8738 31.2488 29.73 31.249H5.36572C3.22185 31.2488 1.48409 29.5111 1.48389 27.3672V7.49121C1.4841 5.34734 3.22185 3.60959 5.36572 3.60938H29.73Z" fill="white" stroke="white"/>
</mask>
<g mask="url(#mask1_437_1935)">
<path d="M33.5981 3.60938V31.249H1.48389V3.60938H33.5981Z" fill="#D4B2D8" stroke="#D4B2D8"/>
</g>
</g>
<mask id="mask2_437_1935" style="mask-type:luminance" maskUnits="userSpaceOnUse" x="8" y="5" width="24" height="25">
<path d="M8.6582 5.69043H31.9608V29.1753H8.6582V5.69043Z" fill="white"/>
</mask>
<g mask="url(#mask2_437_1935)">
<mask id="mask3_437_1935" style="mask-type:luminance" maskUnits="userSpaceOnUse" x="8" y="5" width="24" height="25">
<path d="M12.0404 5.69043H28.5786C30.4466 5.69043 31.9608 7.20462 31.9608 9.07266V25.7862C31.9608 27.6543 30.4466 29.1685 28.5786 29.1685H12.0404C10.1724 29.1685 8.6582 27.6543 8.6582 25.7862V9.07266C8.6582 7.20462 10.1724 5.69043 12.0404 5.69043Z" fill="white"/>
</mask>
<g mask="url(#mask3_437_1935)">
<path d="M8.6582 5.69043H31.9608V29.1753H8.6582V5.69043Z" fill="#5D4E60"/>
</g>
</g>
<mask id="mask4_437_1935" style="mask-type:luminance" maskUnits="userSpaceOnUse" x="13" y="13" width="15" height="11">
<path d="M13.3589 13.127H27.6576V23.4092H13.3589V13.127Z" fill="white"/>
</mask>
<g mask="url(#mask4_437_1935)">
<path d="M26.1244 23.4077H14.8924C14.792 23.4077 14.6925 23.3977 14.5937 23.3786C14.4949 23.3587 14.3991 23.3296 14.3065 23.2905C14.2138 23.2514 14.1257 23.204 14.0415 23.148C13.958 23.0914 13.8806 23.0278 13.8094 22.9558C13.7382 22.8846 13.6753 22.8064 13.6194 22.7222C13.5635 22.638 13.516 22.5491 13.4777 22.4557C13.4395 22.3622 13.4103 22.2657 13.3904 22.1669C13.3705 22.0674 13.3613 21.967 13.3613 21.8659V14.6687C13.3613 14.5676 13.3705 14.4673 13.3904 14.3677C13.4103 14.2689 13.4395 14.1724 13.4777 14.079C13.516 13.9848 13.5635 13.8959 13.6194 13.8124C13.6753 13.7282 13.7382 13.6501 13.8094 13.5781C13.8806 13.5068 13.958 13.4425 14.0415 13.3866C14.1257 13.3307 14.2138 13.2832 14.3065 13.2441C14.3991 13.2051 14.4949 13.176 14.5937 13.1561C14.6925 13.1369 14.792 13.127 14.8924 13.127H26.1244C26.2247 13.127 26.3243 13.1369 26.4231 13.1561C26.5219 13.176 26.6176 13.2051 26.7103 13.2441C26.8029 13.2832 26.891 13.3307 26.9753 13.3866C27.0588 13.4425 27.1361 13.5068 27.2073 13.5781C27.2786 13.6501 27.3414 13.7282 27.3973 13.8124C27.4532 13.8959 27.5007 13.9848 27.539 14.079C27.5773 14.1724 27.6064 14.2689 27.6263 14.3677C27.6462 14.4673 27.6554 14.5676 27.6554 14.6687V21.8659C27.6554 21.967 27.6462 22.0674 27.6263 22.1669C27.6064 22.2657 27.5773 22.3622 27.539 22.4557C27.5007 22.5491 27.4532 22.638 27.3973 22.7222C27.3414 22.8064 27.2786 22.8846 27.2073 22.9558C27.1361 23.0278 27.0588 23.0914 26.9753 23.148C26.891 23.204 26.8029 23.2514 26.7103 23.2905C26.6176 23.3296 26.5219 23.3587 26.4231 23.3786C26.3243 23.3977 26.2247 23.4077 26.1244 23.4077ZM14.8924 14.1548C14.825 14.1548 14.7599 14.1678 14.6971 14.1939C14.635 14.2199 14.5791 14.2574 14.5316 14.3057C14.4834 14.3539 14.4466 14.4091 14.4206 14.4719C14.3953 14.5355 14.3823 14.6006 14.3823 14.6687V21.8659C14.3823 21.9341 14.3953 21.9992 14.4206 22.0628C14.4466 22.1256 14.4834 22.1807 14.5316 22.229C14.5791 22.2772 14.635 22.3147 14.6971 22.3408C14.7599 22.3668 14.825 22.3798 14.8924 22.3798H26.1244C26.1918 22.3798 26.2569 22.3668 26.3197 22.3408C26.3817 22.3147 26.4376 22.2772 26.4851 22.229C26.5333 22.1807 26.5701 22.1256 26.5962 22.0628C26.6214 21.9992 26.6344 21.9341 26.6344 21.8659V14.6687C26.6344 14.6006 26.6214 14.5355 26.5962 14.4719C26.5701 14.4091 26.5333 14.3539 26.4851 14.3057C26.4376 14.2574 26.3817 14.2199 26.3197 14.1939C26.2569 14.1678 26.1918 14.1548 26.1244 14.1548H14.8924Z" fill="#D4B2D8"/>
</g>
<mask id="mask5_437_1935" style="mask-type:luminance" maskUnits="userSpaceOnUse" x="17" y="23" width="7" height="2">
<path d="M17.2539 23.8018H23.7243V24.9506H17.2539V23.8018Z" fill="white"/>
</mask>
<g mask="url(#mask5_437_1935)">
<path d="M23.0609 24.9505H17.9562C17.888 24.9505 17.8229 24.9375 17.7609 24.9114C17.6981 24.8854 17.6429 24.8479 17.5947 24.7996C17.5472 24.7513 17.5104 24.6962 17.4844 24.6326C17.4583 24.5698 17.4453 24.5047 17.4453 24.4366C17.4453 24.3684 17.4583 24.3025 17.4844 24.2397C17.5104 24.1762 17.5472 24.121 17.5947 24.0728C17.6429 24.0245 17.6981 23.9877 17.7609 23.9609C17.8229 23.9349 17.888 23.9219 17.9562 23.9219H23.0609C23.1291 23.9219 23.1942 23.9349 23.2562 23.9609C23.319 23.9877 23.3742 24.0245 23.4224 24.0728C23.4699 24.121 23.5067 24.1762 23.5327 24.2397C23.5588 24.3025 23.5718 24.3684 23.5718 24.4366C23.5718 24.5047 23.5588 24.5698 23.5327 24.6326C23.5067 24.6962 23.4699 24.7513 23.4224 24.7996C23.3742 24.8479 23.319 24.8854 23.2562 24.9114C23.1942 24.9375 23.1291 24.9505 23.0609 24.9505Z" fill="#D4B2D8"/>
</g>
<mask id="mask6_437_1935" style="mask-type:luminance" maskUnits="userSpaceOnUse" x="15" y="16" width="11" height="6">
<path d="M15.8237 16.9395H25.1724V21.057H15.8237V16.9395Z" fill="white"/>
</mask>
<g mask="url(#mask6_437_1935)">
<path d="M19.7582 19.0108C19.7582 20.0984 18.8782 20.9776 17.7906 20.9776C16.703 20.9776 15.8237 20.0984 15.8237 19.0108C15.8237 17.9232 16.703 17.0439 17.7906 17.0439C18.8782 17.0439 19.7582 17.9232 19.7582 19.0108ZM23.2522 17.0439C22.1647 17.0439 21.2854 17.9232 21.2854 19.0108C21.2854 20.0984 22.1647 20.9776 23.2522 20.9776C24.3398 20.9776 25.2198 20.0984 25.2198 19.0108C25.2198 17.9232 24.3398 17.0439 23.2522 17.0439Z" fill="#D4B2D8"/>
</g>
<mask id="mask7_437_1935" style="mask-type:luminance" maskUnits="userSpaceOnUse" x="16" y="14" width="10" height="8">
<path d="M16.4692 14.876H25.1722V21.4482H16.4692V14.876Z" fill="white"/>
</mask>
<g mask="url(#mask7_437_1935)">
<path d="M21.4007 21.266C20.7873 21.4513 20.1163 21.4399 19.5143 21.2315C19.3987 21.1963 19.3175 21.0692 19.3527 20.942C19.3872 20.8264 19.5143 20.7452 19.6415 20.7796C20.1738 20.965 20.7413 20.9765 21.2851 20.8149C21.5746 20.7337 21.6903 21.1733 21.4007 21.266ZM19.6767 18.6972C19.6767 17.968 19.0977 17.3898 18.3693 17.3898C17.6516 17.3898 17.0611 17.9795 17.0611 18.6972C17.0611 19.4148 17.6516 20.0046 18.3693 20.0046C19.0977 20.0046 19.6767 19.4148 19.6767 18.6972ZM23.8539 17.3898C23.1363 17.3898 22.5465 17.9795 22.5465 18.6972C22.5465 19.4148 23.1363 20.0046 23.8539 20.0046C24.5716 20.0046 25.1613 19.4148 25.1613 18.6972C25.1613 17.9795 24.5716 17.3898 23.8539 17.3898ZM18.5891 15.4344C18.7163 15.4459 18.8204 15.318 18.8204 15.2023C18.8204 15.0752 18.7163 14.9825 18.5891 14.971C17.9174 14.9136 17.2465 15.0637 16.6445 15.3762C16.3787 15.5148 16.61 15.92 16.8766 15.7814C17.4089 15.5033 17.9986 15.3877 18.5891 15.4344ZM24.2354 15.7814C24.5019 15.92 24.7332 15.5263 24.4674 15.3762C23.8769 15.0637 23.1945 14.9136 22.5343 14.971C22.4071 14.9825 22.303 15.0752 22.303 15.2023C22.303 15.318 22.4071 15.4459 22.5343 15.4344C23.1248 15.3877 23.7153 15.5033 24.2354 15.7814Z" fill="#D4B2D8"/>
</g>
<mask id="mask8_437_1935" style="mask-type:luminance" maskUnits="userSpaceOnUse" x="14" y="22" width="2" height="7">
<path d="M14.7578 22.4912H15.6463V28.7226H14.7578V22.4912Z" fill="white"/>
</mask>
<g mask="url(#mask8_437_1935)">
<path d="M14.7578 22.4912H15.6463V28.7211H14.7578V22.4912Z" fill="#D4B2D8"/>
</g>
<mask id="mask9_437_1935" style="mask-type:luminance" maskUnits="userSpaceOnUse" x="25" y="7" width="2" height="7">
<path d="M25.2231 7.75098H26.1108V13.9824H25.2231V7.75098Z" fill="white"/>
</mask>
<g mask="url(#mask9_437_1935)">
<path d="M25.2231 7.75098H26.1108V13.9808H25.2231V7.75098Z" fill="#D4B2D8"/>
</g>
<mask id="mask10_437_1935" style="mask-type:luminance" maskUnits="userSpaceOnUse" x="23" y="8" width="2" height="6">
<path d="M23.522 8.95898H24.4104V13.4372H23.522V8.95898Z" fill="white"/>
</mask>
<g mask="url(#mask10_437_1935)">
<path d="M23.522 8.95898H24.4104V13.4372H23.522V8.95898Z" fill="#D4B2D8"/>
</g>
<mask id="mask11_437_1935" style="mask-type:luminance" maskUnits="userSpaceOnUse" x="16" y="23" width="2" height="5">
<path d="M16.2656 23.1162H17.1533V27.5945H16.2656V23.1162Z" fill="white"/>
</mask>
<g mask="url(#mask11_437_1935)">
<path d="M16.2656 23.1162H17.1533V27.5945H16.2656V23.1162Z" fill="#D4B2D8"/>
</g>
<mask id="mask12_437_1935" style="mask-type:luminance" maskUnits="userSpaceOnUse" x="14" y="9" width="9" height="6">
<path d="M14.6353 9.3584H22.6435V14.1599H14.6353V9.3584Z" fill="white"/>
</mask>
<g mask="url(#mask12_437_1935)">
<mask id="mask13_437_1935" style="mask-type:luminance" maskUnits="userSpaceOnUse" x="14" y="9" width="9" height="6">
<path d="M17.3029 9.5897C17.7119 9.45031 18.1791 9.3584 18.6371 9.3584C19.0943 9.3584 19.5347 9.43729 19.9407 9.57668C19.9491 9.58128 19.9583 9.58128 19.9667 9.58511C21.4901 10.1435 22.6129 11.6163 22.6344 13.2254V14.1599H14.6353V13.2262C14.6567 11.6071 15.7619 10.1343 17.3029 9.5897Z" fill="white"/>
</mask>
<g mask="url(#mask13_437_1935)">
<path d="M14.6353 9.3584H22.6435V14.1599H14.6353V9.3584Z" fill="#D4B2D8"/>
</g>
</g>
<mask id="mask14_437_1935" style="mask-type:luminance" maskUnits="userSpaceOnUse" x="15" y="10" width="7" height="4">
<path d="M15.9756 10.2002H21.304V13.1275H15.9756V10.2002Z" fill="white"/>
</mask>
<g mask="url(#mask14_437_1935)">
<mask id="mask15_437_1935" style="mask-type:luminance" maskUnits="userSpaceOnUse" x="15" y="10" width="7" height="4">
<path d="M17.7494 10.3411C18.0213 10.2561 18.3323 10.2002 18.6363 10.2002C18.9404 10.2002 19.233 10.2477 19.5033 10.3327C19.5087 10.3358 19.5148 10.3358 19.5202 10.3381C20.5335 10.6781 21.2802 11.5765 21.294 12.5576V13.1275H15.9756V12.5584C15.9894 11.5712 16.7246 10.6728 17.7494 10.3411Z" fill="white"/>
</mask>
<g mask="url(#mask15_437_1935)">
<path d="M15.9756 10.2002H21.2925V13.1275H15.9756V10.2002Z" fill="#5D4E60"/>
</g>
</g>
<mask id="mask16_437_1935" style="mask-type:luminance" maskUnits="userSpaceOnUse" x="15" y="14" width="10" height="3">
<path d="M15.8237 14.876H24.7948V16.7264H15.8237V14.876Z" fill="white"/>
</mask>
<g mask="url(#mask16_437_1935)">
<path d="M15.8237 14.876H24.7986V16.7264H15.8237V14.876Z" fill="#5D4E60"/>
</g>
<mask id="mask17_437_1935" style="mask-type:luminance" maskUnits="userSpaceOnUse" x="18" y="20" width="5" height="3">
<path d="M18.8735 20.6406H22.1723V22.0154H18.8735V20.6406Z" fill="white"/>
</mask>
<g mask="url(#mask17_437_1935)">
<path d="M18.8735 20.6406H22.1708V22.0154H18.8735V20.6406Z" fill="#5D4E60"/>
</g>
</svg>
