<svg width="27" height="27" viewBox="0 0 27 27" fill="none" xmlns="http://www.w3.org/2000/svg">
<mask id="mask0_445_1847" style="mask-type:luminance" maskUnits="userSpaceOnUse" x="1" y="1" width="25" height="25">
<path d="M13.3994 2.37695C19.4887 2.37699 24.4219 7.32035 24.4219 13.4141C24.4217 19.5077 19.4886 24.4511 13.3994 24.4512C7.31021 24.4512 2.37708 19.5077 2.37695 13.4141C2.37695 7.32033 7.31013 2.37695 13.3994 2.37695Z" fill="white" stroke="white" stroke-width="2.5"/>
</mask>
<g mask="url(#mask0_445_1847)">
<path d="M24.4512 2.37695V24.4512H2.37695V2.37695H24.4512Z" fill="#D4B2D8" stroke="#D4B2D8" stroke-width="2.5"/>
</g>
<mask id="mask1_445_1847" style="mask-type:luminance" maskUnits="userSpaceOnUse" x="5" y="5" width="18" height="17">
<path d="M5.9375 5.27246H22.2216V21.5562H5.9375V5.27246Z" fill="white"/>
</mask>
<g mask="url(#mask1_445_1847)">
<mask id="mask2_445_1847" style="mask-type:luminance" maskUnits="userSpaceOnUse" x="5" y="5" width="18" height="17">
<path d="M14.0793 5.27246C9.58269 5.27246 5.9375 8.91765 5.9375 13.4143C5.9375 17.911 9.58269 21.5562 14.0793 21.5562C18.576 21.5562 22.2216 17.911 22.2216 13.4143C22.2216 8.91765 18.576 5.27246 14.0793 5.27246Z" fill="white"/>
</mask>
<g mask="url(#mask2_445_1847)">
<path d="M5.9375 5.27246H22.2216V21.5562H5.9375V5.27246Z" fill="#5D4E60"/>
</g>
</g>
<mask id="mask3_445_1847" style="mask-type:luminance" maskUnits="userSpaceOnUse" x="9" y="10" width="10" height="7">
<path d="M9.33887 10.0322H18.7905V16.8308H9.33887V10.0322Z" fill="white"/>
</mask>
<g mask="url(#mask3_445_1847)">
<path d="M17.7775 16.801H10.3519C10.2854 16.801 10.2198 16.7946 10.1546 16.7815C10.0895 16.7684 10.0261 16.7494 9.96461 16.7236C9.90308 16.6983 9.84471 16.667 9.78952 16.6299C9.73432 16.5928 9.6832 16.5508 9.63615 16.5037C9.58909 16.4567 9.54702 16.4051 9.50992 16.3499C9.47327 16.2942 9.44206 16.2359 9.41672 16.1744C9.39093 16.1128 9.37193 16.049 9.35881 15.9839C9.34614 15.9183 9.33936 15.8522 9.33936 15.7857V11.0475C9.33936 10.981 9.34614 10.9149 9.35881 10.8498C9.37193 10.7842 9.39093 10.7208 9.41672 10.6593C9.44206 10.5978 9.47327 10.5389 9.50992 10.4837C9.54702 10.4281 9.58909 10.377 9.63615 10.3299C9.6832 10.2824 9.73432 10.2403 9.78952 10.2037C9.84471 10.1666 9.90308 10.1354 9.96461 10.1096C10.0261 10.0843 10.0895 10.0648 10.1546 10.0517C10.2198 10.039 10.2854 10.0322 10.3519 10.0322H17.7775C17.844 10.0322 17.9096 10.039 17.9748 10.0517C18.0399 10.0648 18.1033 10.0843 18.1648 10.1096C18.2263 10.1354 18.2847 10.1666 18.3399 10.2037C18.3951 10.2403 18.4462 10.2824 18.4933 10.3299C18.5403 10.377 18.5824 10.4281 18.6191 10.4837C18.6562 10.5389 18.6874 10.5978 18.7127 10.6593C18.738 10.7208 18.7575 10.7842 18.7706 10.8498C18.7833 10.9149 18.7901 10.981 18.7901 11.0475V15.7857C18.7901 15.8522 18.7833 15.9183 18.7706 15.9839C18.7575 16.049 18.738 16.1128 18.7127 16.1744C18.6874 16.2359 18.6562 16.2942 18.6191 16.3499C18.5824 16.4051 18.5403 16.4567 18.4933 16.5037C18.4462 16.5508 18.3951 16.5928 18.3399 16.6299C18.2847 16.667 18.2263 16.6983 18.1648 16.7236C18.1033 16.7494 18.0399 16.7684 17.9748 16.7815C17.9096 16.7946 17.844 16.801 17.7775 16.801ZM10.3519 10.7091C10.3071 10.7091 10.2641 10.7177 10.2229 10.7348C10.1813 10.752 10.1451 10.7765 10.1135 10.8086C10.0818 10.8403 10.0574 10.8769 10.0402 10.9181C10.023 10.9597 10.0144 11.0027 10.0144 11.0475V15.7857C10.0144 15.8305 10.023 15.8739 10.0402 15.9151C10.0574 15.9567 10.0818 15.9934 10.1135 16.0251C10.1451 16.0567 10.1813 16.0812 10.2229 16.0983C10.2641 16.1155 10.3071 16.1241 10.3519 16.1241H17.7775C17.8219 16.1241 17.8653 16.1155 17.9065 16.0983C17.9477 16.0812 17.9843 16.0567 18.016 16.0251C18.0476 15.9934 18.0721 15.9567 18.0893 15.9151C18.1065 15.8739 18.1151 15.8305 18.1151 15.7857V11.0475C18.1151 11.0027 18.1065 10.9597 18.0893 10.9181C18.0721 10.8769 18.0476 10.8403 18.016 10.8086C17.9843 10.7765 17.9477 10.752 17.9065 10.7348C17.8653 10.7177 17.8219 10.7091 17.7775 10.7091H10.3519Z" fill="#D4B2D8"/>
</g>
<mask id="mask4_445_1847" style="mask-type:luminance" maskUnits="userSpaceOnUse" x="11" y="17" width="6" height="1">
<path d="M11.9658 17.0625H16.1354V17.8162H11.9658V17.0625Z" fill="white"/>
</mask>
<g mask="url(#mask4_445_1847)">
<path d="M15.7517 17.8165H12.3766C12.3318 17.8165 12.2888 17.8079 12.2476 17.7907C12.206 17.7735 12.1698 17.7491 12.1381 17.7174C12.1065 17.6857 12.082 17.6491 12.0649 17.6075C12.0477 17.5663 12.0391 17.5229 12.0391 17.4781C12.0391 17.4333 12.0477 17.3898 12.0649 17.3487C12.082 17.307 12.1065 17.2704 12.1381 17.2387C12.1698 17.2071 12.206 17.1826 12.2476 17.1654C12.2888 17.1482 12.3318 17.1396 12.3766 17.1396H15.7517C15.7965 17.1396 15.8399 17.1482 15.8811 17.1654C15.9222 17.1826 15.9589 17.2071 15.9905 17.2387C16.0222 17.2704 16.0466 17.307 16.0638 17.3487C16.081 17.3898 16.0892 17.4333 16.0892 17.4781C16.0892 17.5229 16.081 17.5663 16.0638 17.6075C16.0466 17.6491 16.0222 17.6857 15.9905 17.7174C15.9589 17.7491 15.9222 17.7735 15.8811 17.7907C15.8399 17.8079 15.7965 17.8165 15.7517 17.8165Z" fill="#D4B2D8"/>
</g>
<mask id="mask5_445_1847" style="mask-type:luminance" maskUnits="userSpaceOnUse" x="10" y="12" width="8" height="4">
<path d="M10.9692 12.5449H17.224V15.3246H10.9692V12.5449Z" fill="white"/>
</mask>
<g mask="url(#mask5_445_1847)">
<path d="M13.5739 13.9261C13.5739 14.6459 12.9916 15.2282 12.2718 15.2282C11.5515 15.2282 10.9692 14.6459 10.9692 13.9261C10.9692 13.2058 11.5515 12.624 12.2718 12.624C12.9916 12.624 13.5739 13.2058 13.5739 13.9261ZM15.8871 12.624C15.1673 12.624 14.585 13.2058 14.585 13.9261C14.585 14.6459 15.1673 15.2282 15.8871 15.2282C16.6074 15.2282 17.1896 14.6459 17.1896 13.9261C17.1896 13.2058 16.6074 12.624 15.8871 12.624Z" fill="#D4B2D8"/>
</g>
<mask id="mask6_445_1847" style="mask-type:luminance" maskUnits="userSpaceOnUse" x="11" y="11" width="7" height="5">
<path d="M11.3872 11.1904H17.1783V15.4993H11.3872V11.1904Z" fill="white"/>
</mask>
<g mask="url(#mask6_445_1847)">
<path d="M14.6619 15.4205C14.2561 15.5427 13.8118 15.5354 13.4132 15.3975C13.3368 15.3744 13.2829 15.2902 13.306 15.2056C13.3291 15.1292 13.4132 15.0758 13.4978 15.0984C13.8498 15.221 14.2253 15.2287 14.5855 15.1215C14.7768 15.0681 14.8533 15.359 14.6619 15.4205ZM13.5205 13.7199C13.5205 13.2371 13.1377 12.8539 12.655 12.8539C12.1799 12.8539 11.7895 13.2448 11.7895 13.7199C11.7895 14.1949 12.1799 14.5854 12.655 14.5854C13.1377 14.5854 13.5205 14.1949 13.5205 13.7199ZM16.2861 12.8539C15.8111 12.8539 15.4202 13.2448 15.4202 13.7199C15.4202 14.1949 15.8111 14.5854 16.2861 14.5854C16.7607 14.5854 17.1516 14.1949 17.1516 13.7199C17.1516 13.2448 16.7607 12.8539 16.2861 12.8539ZM12.8006 11.5595C12.8848 11.5672 12.9536 11.4831 12.9536 11.4062C12.9536 11.322 12.8848 11.2609 12.8006 11.2532C12.3564 11.2148 11.9121 11.3143 11.5135 11.5211C11.3375 11.6134 11.4904 11.8812 11.6669 11.7894C12.0193 11.6057 12.4098 11.5288 12.8006 11.5595ZM16.5386 11.7894C16.715 11.8812 16.868 11.6211 16.692 11.5211C16.3015 11.3143 15.8495 11.2148 15.4125 11.2532C15.3284 11.2609 15.2596 11.322 15.2596 11.4062C15.2596 11.4831 15.3284 11.5672 15.4125 11.5595C15.8034 11.5288 16.1943 11.6057 16.5386 11.7894Z" fill="#D4B2D8"/>
</g>
<mask id="mask7_445_1847" style="mask-type:luminance" maskUnits="userSpaceOnUse" x="10" y="16" width="1" height="5">
<path d="M10.2642 16.2295H10.8519V20.3533H10.2642V16.2295Z" fill="white"/>
</mask>
<g mask="url(#mask7_445_1847)">
<path d="M10.2642 16.2295H10.8519V20.3524H10.2642V16.2295Z" fill="#D4B2D8"/>
</g>
<mask id="mask8_445_1847" style="mask-type:luminance" maskUnits="userSpaceOnUse" x="17" y="6" width="1" height="5">
<path d="M17.1899 6.47461H17.7776V10.5985H17.1899V6.47461Z" fill="white"/>
</mask>
<g mask="url(#mask8_445_1847)">
<path d="M17.1899 6.47461H17.7776V10.5976H17.1899V6.47461Z" fill="#D4B2D8"/>
</g>
<mask id="mask9_445_1847" style="mask-type:luminance" maskUnits="userSpaceOnUse" x="16" y="7" width="1" height="4">
<path d="M16.064 7.27441H16.6517V10.2383H16.064V7.27441Z" fill="white"/>
</mask>
<g mask="url(#mask9_445_1847)">
<path d="M16.064 7.27441H16.6517V10.2378H16.064V7.27441Z" fill="#D4B2D8"/>
</g>
<mask id="mask10_445_1847" style="mask-type:luminance" maskUnits="userSpaceOnUse" x="11" y="16" width="1" height="4">
<path d="M11.2617 16.6426H11.8494V19.6064H11.2617V16.6426Z" fill="white"/>
</mask>
<g mask="url(#mask10_445_1847)">
<path d="M11.2617 16.6426H11.8494V19.6064H11.2617V16.6426Z" fill="#D4B2D8"/>
</g>
<mask id="mask11_445_1847" style="mask-type:luminance" maskUnits="userSpaceOnUse" x="10" y="7" width="6" height="4">
<path d="M10.1831 7.53906H15.4828V10.7164H10.1831V7.53906Z" fill="white"/>
</mask>
<g mask="url(#mask11_445_1847)">
<mask id="mask12_445_1847" style="mask-type:luminance" maskUnits="userSpaceOnUse" x="10" y="7" width="6" height="4">
<path d="M11.9485 7.69198C12.219 7.59969 12.5285 7.53906 12.8312 7.53906C13.1343 7.53906 13.4256 7.59109 13.6939 7.68339C13.6998 7.6861 13.7052 7.6861 13.7111 7.68927C14.7196 8.05845 15.4625 9.03297 15.4765 10.098V10.7164H10.1831V10.0984C10.1971 9.02754 10.9287 8.05257 11.9485 7.69198Z" fill="white"/>
</mask>
<g mask="url(#mask12_445_1847)">
<path d="M10.1831 7.53906H15.4828V10.7164H10.1831V7.53906Z" fill="#D4B2D8"/>
</g>
</g>
<mask id="mask13_445_1847" style="mask-type:luminance" maskUnits="userSpaceOnUse" x="11" y="8" width="4" height="3">
<path d="M11.0698 8.09473H14.596V10.032H11.0698V8.09473Z" fill="white"/>
</mask>
<g mask="url(#mask13_445_1847)">
<mask id="mask14_445_1847" style="mask-type:luminance" maskUnits="userSpaceOnUse" x="11" y="8" width="4" height="3">
<path d="M12.2439 8.18793C12.4235 8.13183 12.6293 8.09473 12.8307 8.09473C13.032 8.09473 13.2261 8.1264 13.4043 8.18295C13.4084 8.18476 13.412 8.18476 13.4157 8.18657C14.0866 8.41142 14.5802 9.00591 14.5897 9.65514V10.032H11.0698V9.65559C11.0793 9.00229 11.5657 8.4078 12.2439 8.18793Z" fill="white"/>
</mask>
<g mask="url(#mask14_445_1847)">
<path d="M11.0698 8.09473H14.5888V10.032H11.0698V8.09473Z" fill="#5D4E60"/>
</g>
</g>
<mask id="mask15_445_1847" style="mask-type:luminance" maskUnits="userSpaceOnUse" x="10" y="11" width="7" height="2">
<path d="M10.9692 11.1904H16.9064V12.4147H10.9692V11.1904Z" fill="white"/>
</mask>
<g mask="url(#mask15_445_1847)">
<path d="M10.9692 11.1904H16.9087V12.4147H10.9692V11.1904Z" fill="#5D4E60"/>
</g>
<mask id="mask16_445_1847" style="mask-type:luminance" maskUnits="userSpaceOnUse" x="12" y="15" width="4" height="1">
<path d="M12.9878 15.0049H15.1712V15.9147H12.9878V15.0049Z" fill="white"/>
</mask>
<g mask="url(#mask16_445_1847)">
<path d="M12.9878 15.0049H15.1703V15.9147H12.9878V15.0049Z" fill="#5D4E60"/>
</g>
</svg>
