<svg width="134" height="134" viewBox="0 0 134 134" fill="none" xmlns="http://www.w3.org/2000/svg">
<mask id="mask0_18_1255" style="mask-type:luminance" maskUnits="userSpaceOnUse" x="14" y="14" width="105" height="106">
<path d="M66.5 16C38.6066 16 16 38.6446 16 66.5719C16 94.4991 38.6066 117.144 66.5 117.144C94.3933 117.144 117 94.4991 117 66.5719C117 38.6446 94.3933 16 66.5 16Z" fill="white" stroke="white" stroke-width="4"/>
</mask>
<g mask="url(#mask0_18_1255)">
<path d="M18 16H16V18V115.144V117.144H18H115.147H117.147V115.144V18V16H115.147H18Z" fill="black" stroke="black" stroke-width="4"/>
</g>
<mask id="mask1_18_1255" style="mask-type:luminance" maskUnits="userSpaceOnUse" x="29" y="26" width="82" height="81">
<path d="M29.467 26.1642H110.285V106.98H29.467V26.1642Z" fill="white"/>
</mask>
<g mask="url(#mask1_18_1255)">
<mask id="mask2_18_1255" style="mask-type:luminance" maskUnits="userSpaceOnUse" x="29" y="26" width="82" height="81">
<path d="M69.8747 26.1642C47.558 26.1642 29.467 44.2551 29.467 66.5719C29.467 88.8886 47.558 106.98 69.8747 106.98C92.1915 106.98 110.285 88.8886 110.285 66.5719C110.285 44.2551 92.1915 26.1642 69.8747 26.1642Z" fill="white"/>
</mask>
<g mask="url(#mask2_18_1255)">
<path d="M29.467 26.1642H110.285V106.98H29.467V26.1642Z" fill="white"/>
</g>
</g>
<mask id="mask3_18_1255" style="mask-type:luminance" maskUnits="userSpaceOnUse" x="46" y="49" width="48" height="35">
<path d="M46.3479 49.7877H93.2559V83.5289H46.3479V49.7877Z" fill="white"/>
</mask>
<g mask="url(#mask3_18_1255)">
<path d="M88.2285 83.3807H51.3752C51.0452 83.3807 50.7196 83.3493 50.3963 83.2842C50.0729 83.219 49.7586 83.1247 49.4532 82.9967C49.1478 82.871 48.8582 82.7161 48.5842 82.532C48.3103 82.3478 48.0566 82.139 47.8231 81.9055C47.5895 81.672 47.3807 81.416 47.1966 81.1421C47.0147 80.8659 46.8598 80.5762 46.7341 80.2709C46.6061 79.9655 46.5118 79.6489 46.4466 79.3256C46.3838 79 46.3501 78.6722 46.3501 78.3421V54.8263C46.3501 54.4963 46.3838 54.1684 46.4466 53.8451C46.5118 53.5195 46.6061 53.2052 46.7341 52.8998C46.8598 52.5944 47.0147 52.3025 47.1966 52.0286C47.3807 51.7524 47.5895 51.4987 47.8231 51.2652C48.0566 51.0294 48.3103 50.8206 48.5842 50.6387C48.8582 50.4546 49.1478 50.2997 49.4532 50.1717C49.7586 50.0459 50.0729 49.9494 50.3963 49.8843C50.7196 49.8214 51.0452 49.7877 51.3752 49.7877H88.2285C88.5586 49.7877 88.8842 49.8214 89.2075 49.8843C89.5308 49.9494 89.8452 50.0459 90.1505 50.1717C90.4559 50.2997 90.7456 50.4546 91.0195 50.6387C91.2934 50.8206 91.5472 51.0294 91.7807 51.2652C92.0142 51.4987 92.223 51.7524 92.4049 52.0286C92.589 52.3025 92.7439 52.5944 92.8697 52.8998C92.9954 53.2052 93.092 53.5195 93.1571 53.8451C93.22 54.1684 93.2536 54.4963 93.2536 54.8263V78.3421C93.2536 78.6722 93.22 79 93.1571 79.3256C93.092 79.6489 92.9954 79.9655 92.8697 80.2709C92.7439 80.5762 92.589 80.8659 92.4049 81.1421C92.223 81.416 92.0142 81.672 91.7807 81.9055C91.5472 82.139 91.2934 82.3478 91.0195 82.532C90.7456 82.7161 90.4559 82.871 90.1505 82.9967C89.8452 83.1247 89.5308 83.219 89.2075 83.2842C88.8842 83.3493 88.5586 83.3807 88.2285 83.3807ZM51.3752 53.1468C51.1529 53.1468 50.9396 53.1895 50.7353 53.2748C50.5287 53.3601 50.3491 53.4814 50.1919 53.6408C50.0348 53.798 49.9135 53.9798 49.8282 54.1842C49.7429 54.3907 49.7002 54.604 49.7002 54.8263V78.3421C49.7002 78.5644 49.7429 78.7799 49.8282 78.9843C49.9135 79.1908 50.0348 79.3727 50.1919 79.5299C50.3491 79.6871 50.5287 79.8083 50.7353 79.8936C50.9396 79.979 51.1529 80.0216 51.3752 80.0216H88.2285C88.4486 80.0216 88.6641 79.979 88.8684 79.8936C89.0728 79.8083 89.2546 79.6871 89.4118 79.5299C89.569 79.3727 89.6902 79.1908 89.7756 78.9843C89.8609 78.7799 89.9035 78.5644 89.9035 78.3421V54.8263C89.9035 54.604 89.8609 54.3907 89.7756 54.1842C89.6902 53.9798 89.569 53.798 89.4118 53.6408C89.2546 53.4814 89.0728 53.3601 88.8684 53.2748C88.6641 53.1895 88.4486 53.1468 88.2285 53.1468H51.3752Z" fill="black"/>
</g>
<mask id="mask4_18_1255" style="mask-type:luminance" maskUnits="userSpaceOnUse" x="59" y="84" width="22" height="5">
<path d="M59.3865 84.6785H80.0798V88.4193H59.3865V84.6785Z" fill="white"/>
</mask>
<g mask="url(#mask4_18_1255)">
<path d="M78.1758 88.4192H61.4253C61.203 88.4192 60.9897 88.3765 60.7854 88.2912C60.5788 88.2059 60.3992 88.0846 60.242 87.9275C60.0848 87.7703 59.9636 87.5884 59.8782 87.3818C59.7929 87.1775 59.7502 86.9619 59.7502 86.7397C59.7502 86.5174 59.7929 86.3018 59.8782 86.0975C59.9636 85.8909 60.0848 85.709 60.242 85.5519C60.3992 85.3947 60.5788 85.2734 60.7854 85.1881C60.9897 85.1028 61.203 85.0601 61.4253 85.0601H78.1758C78.398 85.0601 78.6136 85.1028 78.8179 85.1881C79.0223 85.2734 79.2041 85.3947 79.3613 85.5519C79.5185 85.709 79.6397 85.8909 79.7251 86.0975C79.8104 86.3018 79.8508 86.5174 79.8508 86.7397C79.8508 86.9619 79.8104 87.1775 79.7251 87.3818C79.6397 87.5884 79.5185 87.7703 79.3613 87.9275C79.2041 88.0846 79.0223 88.2059 78.8179 88.2912C78.6136 88.3765 78.398 88.4192 78.1758 88.4192Z" fill="black"/>
</g>
<mask id="mask5_18_1255" style="mask-type:luminance" maskUnits="userSpaceOnUse" x="54" y="62" width="32" height="15">
<path d="M54.4402 62.2607H85.4824V76.0563H54.4402V62.2607Z" fill="white"/>
</mask>
<g mask="url(#mask5_18_1255)">
<path d="M67.3668 69.1135C67.3668 72.6859 64.477 75.5757 60.9046 75.5757C57.33 75.5757 54.4402 72.6859 54.4402 69.1135C54.4402 65.5389 57.33 62.6513 60.9046 62.6513C64.477 62.6513 67.3668 65.5389 67.3668 69.1135ZM78.8474 62.6513C75.275 62.6513 72.3852 65.5389 72.3852 69.1135C72.3852 72.6859 75.275 75.5757 78.8474 75.5757C82.422 75.5757 85.3118 72.6859 85.3118 69.1135C85.3118 65.5389 82.422 62.6513 78.8474 62.6513Z" fill="#D9D9D9"/>
</g>
<mask id="mask6_18_1255" style="mask-type:luminance" maskUnits="userSpaceOnUse" x="56" y="55" width="30" height="22">
<path d="M56.5127 55.5359H85.2534V76.9208H56.5127V55.5359Z" fill="white"/>
</mask>
<g mask="url(#mask6_18_1255)">
<path d="M72.7646 76.5279C70.7505 77.1342 68.5456 77.0982 66.5674 76.4134C66.1879 76.2989 65.9207 75.8812 66.0352 75.4614C66.1497 75.0819 66.5674 74.8169 66.9873 74.9292C68.7342 75.5377 70.5978 75.5759 72.3851 75.0437C73.3349 74.7788 73.7144 76.2225 72.7646 76.5279ZM67.0995 68.0876C67.0995 65.6917 65.2 63.7899 62.8041 63.7899C60.4465 63.7899 58.5087 65.7299 58.5087 68.0876C58.5087 70.4452 60.4465 72.3829 62.8041 72.3829C65.2 72.3829 67.0995 70.4452 67.0995 68.0876ZM80.8255 63.7899C78.4678 63.7899 76.5278 65.7299 76.5278 68.0876C76.5278 70.4452 78.4678 72.3829 80.8255 72.3829C83.1809 72.3829 85.1209 70.4452 85.1209 68.0876C85.1209 65.7299 83.1809 63.7899 80.8255 63.7899ZM63.5272 57.3659C63.9448 57.4041 64.2861 56.9864 64.2861 56.6047C64.2861 56.1871 63.9448 55.884 63.5272 55.8458C61.3222 55.6549 59.1172 56.1489 57.1391 57.1751C56.2656 57.6331 57.0246 58.9624 57.9003 58.5066C59.6494 57.5949 61.5872 57.2132 63.5272 57.3659ZM82.0784 58.5066C82.9541 58.9624 83.713 57.6713 82.8396 57.1751C80.9018 56.1489 78.6587 55.6549 76.4897 55.8458C76.072 55.884 75.7307 56.1871 75.7307 56.6047C75.7307 56.9864 76.072 57.4041 76.4897 57.3659C78.4297 57.2132 80.3697 57.5949 82.0784 58.5066Z" fill="black"/>
</g>
<mask id="mask7_18_1255" style="mask-type:luminance" maskUnits="userSpaceOnUse" x="50" y="80" width="4" height="22">
<path d="M50.9395 80.5449H53.8562V101.011H50.9395V80.5449Z" fill="white"/>
</mask>
<g mask="url(#mask7_18_1255)">
<path d="M50.9395 80.5449H53.8562V101.007H50.9395V80.5449Z" fill="black"/>
</g>
<mask id="mask8_18_1255" style="mask-type:luminance" maskUnits="userSpaceOnUse" x="85" y="32" width="4" height="21">
<path d="M85.3118 32.1323H88.2285V52.5989H85.3118V32.1323Z" fill="white"/>
</mask>
<g mask="url(#mask8_18_1255)">
<path d="M85.3118 32.1323H88.2285V52.5944H85.3118V32.1323Z" fill="black"/>
</g>
<mask id="mask9_18_1255" style="mask-type:luminance" maskUnits="userSpaceOnUse" x="79" y="36" width="4" height="15">
<path d="M79.7251 36.1H82.6418V50.8094H79.7251V36.1Z" fill="white"/>
</mask>
<g mask="url(#mask9_18_1255)">
<path d="M79.7251 36.1H82.6418V50.8072H79.7251V36.1Z" fill="black"/>
</g>
<mask id="mask10_18_1255" style="mask-type:luminance" maskUnits="userSpaceOnUse" x="55" y="82" width="4" height="16">
<path d="M55.8904 82.597H58.8071V97.3064H55.8904V82.597Z" fill="white"/>
</mask>
<g mask="url(#mask10_18_1255)">
<path d="M55.8904 82.597H58.8071V97.3064H55.8904V82.597Z" fill="black"/>
</g>
<mask id="mask11_18_1255" style="mask-type:luminance" maskUnits="userSpaceOnUse" x="50" y="37" width="27" height="17">
<path d="M50.5378 37.4135H76.8401V53.1827H50.5378V37.4135Z" fill="white"/>
</mask>
<g mask="url(#mask11_18_1255)">
<mask id="mask12_18_1255" style="mask-type:luminance" maskUnits="userSpaceOnUse" x="50" y="37" width="27" height="17">
<path d="M59.2993 38.1724C60.642 37.7144 62.1778 37.4135 63.68 37.4135C65.1844 37.4135 66.6304 37.6717 67.9619 38.1298C67.9911 38.1433 68.0181 38.1433 68.0472 38.159C73.0522 39.9912 76.7391 44.8277 76.8087 50.1133V53.1827H50.5378V50.1156C50.6074 44.8008 54.2382 39.962 59.2993 38.1724Z" fill="white"/>
</mask>
<g mask="url(#mask12_18_1255)">
<path d="M50.5378 37.4135H76.8401V53.1827H50.5378V37.4135Z" fill="black"/>
</g>
</g>
<mask id="mask13_18_1255" style="mask-type:luminance" maskUnits="userSpaceOnUse" x="54" y="40" width="19" height="10">
<path d="M54.9385 40.173H72.4389V49.7876H54.9385V40.173Z" fill="white"/>
</mask>
<g mask="url(#mask13_18_1255)">
<mask id="mask14_18_1255" style="mask-type:luminance" maskUnits="userSpaceOnUse" x="54" y="40" width="19" height="10">
<path d="M60.7652 40.6355C61.6566 40.3571 62.6783 40.173 63.6775 40.173C64.6766 40.173 65.6399 40.3301 66.5246 40.6108C66.5448 40.6198 66.5628 40.6198 66.5807 40.6288C69.9106 41.7447 72.3603 44.6951 72.4075 47.9173V49.7876H54.9385V47.9195C54.9856 44.6772 57.3994 41.7268 60.7652 40.6355Z" fill="white"/>
</mask>
<g mask="url(#mask14_18_1255)">
<path d="M54.9385 40.173H72.403V49.7876H54.9385V40.173Z" fill="white"/>
</g>
</g>
<mask id="mask15_18_1255" style="mask-type:luminance" maskUnits="userSpaceOnUse" x="54" y="55" width="30" height="7">
<path d="M54.4402 55.5359H83.9062V61.6119H54.4402V55.5359Z" fill="white"/>
</mask>
<g mask="url(#mask15_18_1255)">
<path d="M54.4402 55.5359H83.9174V61.6119H54.4402V55.5359Z" fill="white"/>
</g>
<mask id="mask16_18_1255" style="mask-type:luminance" maskUnits="userSpaceOnUse" x="64" y="74" width="12" height="5">
<path d="M64.4565 74.4689H75.2927V78.9843H64.4565V74.4689Z" fill="white"/>
</mask>
<g mask="url(#mask16_18_1255)">
<path d="M64.4565 74.4689H75.2882V78.9843H64.4565V74.4689Z" fill="white"/>
</g>
</svg>
